<svg width="33" height="33" viewBox="0 0 33 33" fill="none" xmlns="http://www.w3.org/2000/svg">
<circle cx="16.5" cy="16.5" r="8.5" fill="#A73700"/>
<path d="M8.72711 5.15902C8.90026 4.64982 9.18004 4.18342 9.54778 3.79095C9.91551 3.39848 10.3627 3.08897 10.8596 2.8831C11.3565 2.67722 11.8915 2.5797 12.4291 2.59706C12.9666 2.61442 13.4943 2.74626 13.9769 2.98377L15.741 3.85277C15.9771 3.96899 16.2368 4.02943 16.5 4.02943C16.7632 4.02943 17.0228 3.96899 17.259 3.85277L19.0231 2.98377C19.4687 2.76443 19.953 2.63501 20.4486 2.60289C20.9442 2.57077 21.4412 2.63658 21.9113 2.79657C22.3815 2.95656 22.8155 3.20758 23.1886 3.53532C23.5617 3.86305 23.8666 4.26107 24.0859 4.70664L24.1862 4.92939L24.2729 5.15902L24.9054 7.01939C25.0772 7.52539 25.4746 7.92277 25.9806 8.09464L27.841 8.72714C28.3501 8.90043 28.8163 9.18032 29.2086 9.54812C29.601 9.91592 29.9103 10.3632 30.1161 10.86C30.3218 11.3569 30.4192 11.8919 30.4017 12.4294C30.3843 12.9669 30.2524 13.4944 30.0149 13.9769L29.1486 15.7396C29.0322 15.976 28.9716 16.2359 28.9716 16.4993C28.9716 16.7628 29.0322 17.0227 29.1486 17.259L30.0149 19.0231C30.2524 19.5056 30.3843 20.0332 30.4017 20.5707C30.4192 21.1081 30.3218 21.6432 30.1161 22.14C29.9103 22.6369 29.601 23.0841 29.2086 23.4519C28.8163 23.8197 28.3501 24.0996 27.841 24.2729L25.9792 24.9054C25.73 24.9905 25.5037 25.1317 25.3178 25.3181C25.1318 25.5046 24.9912 25.7312 24.9067 25.9806L24.2742 27.841C24.101 28.3505 23.821 28.8171 23.453 29.2096C23.085 29.6022 22.6375 29.9117 22.1403 30.1175C21.6431 30.3233 21.1077 30.4206 20.5699 30.4029C20.0321 30.3852 19.5043 30.2529 19.0217 30.0149L17.259 29.1459C17.0228 29.0297 16.7632 28.9692 16.5 28.9692C16.2368 28.9692 15.9771 29.0297 15.741 29.1459L13.9769 30.0149C13.4944 30.2524 12.9668 30.3843 12.4293 30.4018C11.8919 30.4192 11.3568 30.3218 10.86 30.1161C10.3631 29.9103 9.91589 29.601 9.54809 29.2087C9.18029 28.8164 8.9004 28.3501 8.72711 27.841L8.09461 25.9793C8.00951 25.7301 7.8683 25.5038 7.68187 25.3178C7.49543 25.1319 7.26877 24.9912 7.01936 24.9068L5.15898 24.2743C4.64961 24.1011 4.18303 23.8213 3.79043 23.4535C3.39783 23.0857 3.08825 22.6383 2.88235 22.1412C2.67646 21.6442 2.579 21.109 2.59648 20.5712C2.61396 20.0335 2.74599 19.5058 2.98373 19.0231L3.85273 17.259C3.96918 17.0227 4.02974 16.7628 4.02974 16.4993C4.02974 16.2359 3.96918 15.976 3.85273 15.7396L2.98373 13.9769C2.74623 13.4943 2.61439 12.9667 2.59703 12.4291C2.57967 11.8916 2.67719 11.3565 2.88307 10.8596C3.08894 10.3628 3.39845 9.91554 3.79092 9.54781C4.18339 9.18007 4.64979 8.90029 5.15898 8.72714L7.01936 8.09464C7.26906 8.0099 7.49591 7.86885 7.68237 7.6824C7.86882 7.49594 8.00987 7.26909 8.09461 7.01939L8.72711 5.15902ZM22.385 12.3338C22.1916 12.1406 21.9295 12.0322 21.6562 12.0322C21.383 12.0322 21.1208 12.1406 20.9275 12.3338L14.7812 18.48L12.0725 15.7713C11.877 15.5891 11.6184 15.4899 11.3513 15.4946C11.0841 15.4994 10.8292 15.6076 10.6403 15.7965C10.4513 15.9855 10.3431 16.2404 10.3384 16.5075C10.3337 16.7747 10.4328 17.0333 10.615 17.2288L14.0525 20.6663C14.2458 20.8594 14.508 20.9679 14.7812 20.9679C15.0545 20.9679 15.3166 20.8594 15.51 20.6663L22.385 13.7913C22.5781 13.5979 22.6866 13.3358 22.6866 13.0625C22.6866 12.7892 22.5781 12.5271 22.385 12.3338Z" fill="#FFCEB6"/>
</svg>
