<svg width="30" height="23" viewBox="0 0 30 23" fill="none" xmlns="http://www.w3.org/2000/svg">
<path d="M29.2637 4.49195C29.3212 4.10582 29.2233 3.87106 29.0889 3.5173C29.0407 3.38384 28.9927 3.25028 28.9448 3.11663C28.9074 3.01296 28.9074 3.01296 28.8693 2.90719C28.72 2.477 28.5934 2.03747 28.4668 1.59858C28.4477 1.53499 28.4286 1.47139 28.409 1.40587C28.3925 1.34941 28.3761 1.29296 28.3591 1.23479C28.3397 1.19255 28.3202 1.1503 28.3002 1.10678C28.2373 1.08769 28.1743 1.06861 28.1095 1.04894C28.0072 1.11998 28.0072 1.11998 27.8958 1.2311C27.8326 1.29295 27.8326 1.29295 27.7682 1.35605C27.7229 1.40155 27.6777 1.44706 27.631 1.49394C27.5346 1.58929 27.438 1.68451 27.3414 1.77961C27.291 1.8293 27.2406 1.87898 27.1887 1.93017C27.0308 2.08234 26.8699 2.22894 26.707 2.37442C26.6282 2.44545 26.6282 2.44545 26.5477 2.51793C26.446 2.60913 26.3438 2.69953 26.2409 2.78901C26.0133 2.99531 25.8877 3.1266 25.7692 3.43038C25.763 3.5051 25.7567 3.57982 25.7502 3.65681C25.906 3.85509 25.906 3.85509 26.0432 3.93917C26.4598 3.96755 26.8183 3.49047 27.1107 3.20546C27.1714 3.14451 27.232 3.08356 27.2946 3.02076C27.3697 2.95462 27.3697 2.95462 27.4464 2.88714C27.4884 2.89986 27.5304 2.91259 27.5736 2.9257C27.7277 2.9481 27.8819 2.96973 28.0362 2.99042C28.0496 3.03219 28.063 3.07396 28.0768 3.11699C28.1377 3.30682 28.1991 3.49652 28.2604 3.68622C28.2815 3.75194 28.3025 3.81766 28.3242 3.88538C28.3448 3.94881 28.3653 4.01224 28.3865 4.0776C28.4147 4.16505 28.4147 4.16505 28.4434 4.25426C28.5002 4.41083 28.5503 4.5475 28.6402 4.68408C29.1455 4.79667 29.1455 4.79667 29.2637 4.49195Z" fill="black"/>
<path d="M18.7993 17.8016C18.7994 17.5609 18.7994 17.5609 18.7533 17.4714C18.5557 17.3796 18.396 17.3084 18.1832 17.3765C18.0516 17.4462 17.9288 17.5241 17.8045 17.6086C17.74 17.6482 17.74 17.6482 17.6742 17.6886C17.4061 17.863 17.2585 18.0067 17.1668 18.3499C17.2235 18.5512 17.2235 18.5512 17.3512 18.7079C17.5584 18.7874 17.6857 18.7845 17.8874 18.687C18.0352 18.5965 18.1761 18.4983 18.3177 18.3967C18.36 18.3709 18.4023 18.3451 18.4459 18.3185C18.6773 18.1684 18.7356 18.0944 18.7993 17.8016Z" fill="black"/>
<path d="M15.1971 19.943C15.2073 19.696 15.2073 19.696 15.1748 19.4831C14.9518 19.3355 14.8489 19.2892 14.5891 19.3442C14.5125 19.3752 14.4358 19.4062 14.3569 19.4381C14.2801 19.4681 14.2033 19.4981 14.1243 19.529C13.9303 19.6175 13.7551 19.6979 13.5836 19.8315C13.5339 20.0996 13.5339 20.0996 13.5247 20.3423C13.7687 20.4886 13.9015 20.557 14.1796 20.5049C14.2553 20.4743 14.3311 20.4437 14.4092 20.4122C14.4851 20.3829 14.5611 20.3535 14.6394 20.3233C14.8532 20.2181 15.0217 20.1142 15.1971 19.943Z" fill="black"/>
<path d="M17.0328 18.956C17.0481 18.8719 17.0634 18.7877 17.0792 18.701C16.9058 18.4803 16.8634 18.4346 16.6055 18.4063C16.4078 18.4665 16.2281 18.5588 16.0433 18.656C15.9682 18.6914 15.9682 18.6914 15.8917 18.7276C15.6251 18.8653 15.5264 18.9261 15.4048 19.2339C15.383 19.4707 15.383 19.4707 15.4752 19.6497C15.6556 19.7431 15.7863 19.7874 15.982 19.7261C16.1197 19.6616 16.2521 19.5905 16.385 19.5148C16.4312 19.4899 16.4774 19.4649 16.525 19.4391C16.9521 19.2071 16.9521 19.2071 17.0328 18.956Z" fill="black"/>
<path d="M11.3162 21.0416C11.3549 20.8173 11.3549 20.8173 11.3213 20.6608C11.1537 20.4814 10.9825 20.5021 10.7541 20.4841C10.5735 20.5035 10.4063 20.5281 10.2294 20.5657C10.1846 20.5732 10.1398 20.5807 10.0936 20.5885C9.96313 20.6157 9.96313 20.6157 9.74142 20.7057C9.62312 20.9029 9.62312 20.9029 9.57289 21.1078C9.62961 21.3091 9.62961 21.3091 9.75727 21.4658C10.0795 21.5379 10.366 21.4826 10.6825 21.4065C10.7283 21.3961 10.7741 21.3858 10.8213 21.3751C11.2362 21.2796 11.2362 21.2796 11.3162 21.0416Z" fill="black"/>
<path d="M20.4498 16.598C20.4567 16.3792 20.4524 16.2938 20.3177 16.1331C20.1735 16.0643 20.1735 16.0643 19.9998 16.0367C19.835 16.1222 19.835 16.1222 19.6682 16.2525C19.6104 16.2974 19.5526 16.3422 19.493 16.3885C19.4404 16.4301 19.3878 16.4717 19.3337 16.5145C19.2661 16.5594 19.1984 16.6044 19.1288 16.6507C18.9408 16.8399 18.9083 17.0066 18.8694 17.2801C18.9616 17.4591 18.9616 17.4591 19.1328 17.544C19.4204 17.5861 19.5106 17.502 19.7485 17.32C19.8 17.2827 19.8514 17.2453 19.9044 17.2068C20.322 16.8891 20.322 16.8891 20.4498 16.598Z" fill="black"/>
<path d="M23.3082 13.1879C23.2621 13.0984 23.2621 13.0984 23.0652 12.9963C22.817 12.9635 22.817 12.9635 22.6995 13.0414C22.5781 13.1642 22.4686 13.2931 22.3591 13.4289C22.3219 13.4699 22.2847 13.511 22.2463 13.5534C22.0328 13.7953 21.8998 13.9881 21.8599 14.3349C21.9521 14.5139 21.9521 14.5139 22.1518 14.6216C22.3972 14.6488 22.3972 14.6488 22.5138 14.573C22.6371 14.4503 22.7459 14.3214 22.855 14.1834C22.8943 14.1374 22.9335 14.0914 22.9739 14.0439C23.1979 13.7675 23.3243 13.5758 23.3082 13.1879Z" fill="black"/>
<path d="M25.5766 9.57074C25.4208 9.37245 25.4208 9.37245 25.2311 9.31023C25.0218 9.327 25.0218 9.327 24.8664 9.48759C24.8111 9.57668 24.759 9.66818 24.7086 9.76073C24.6709 9.82942 24.6331 9.8981 24.5942 9.96887C24.2893 10.555 24.2893 10.555 24.2939 10.7941C24.3477 10.9353 24.3477 10.9353 24.565 11.0578C24.6344 11.0851 24.7038 11.1123 24.7753 11.1404C25.028 10.9584 25.162 10.7216 25.3091 10.4385C25.3324 10.396 25.3557 10.3536 25.3797 10.3098C25.5109 10.0608 25.5993 9.86169 25.5766 9.57074Z" fill="black"/>
<path d="M3.32114 21.1711C3.32086 20.9492 3.32086 20.9492 3.16508 20.7509C2.90987 20.668 2.64767 20.631 2.38457 20.5898C2.32574 20.5796 2.26691 20.5695 2.20629 20.559C2.0553 20.5403 1.92726 20.5295 1.77732 20.5567C1.61575 20.7248 1.61575 20.7248 1.5452 20.9395C1.58173 21.1146 1.58173 21.1146 1.66599 21.2782C2.07211 21.5031 2.64829 21.5872 3.09985 21.5619C3.2795 21.3898 3.2795 21.3898 3.32114 21.1711Z" fill="black"/>
<path d="M5.34179 21.4487C5.36168 21.266 5.36168 21.266 5.32582 21.1182C5.07767 20.8257 4.63114 20.8386 4.28928 20.8181C4.20768 20.8126 4.12609 20.8072 4.04202 20.8015C3.83563 20.8033 3.83563 20.8033 3.67347 20.9052C3.59239 21.1449 3.59239 21.1449 3.55104 21.3967C3.83552 21.7588 4.33997 21.7363 4.75697 21.7718C5.03437 21.7928 5.22339 21.7437 5.34179 21.4487Z" fill="black"/>
<path d="M13.288 20.1949C12.9767 20.0044 12.7969 19.9703 12.4645 20.0705C12.4197 20.0857 12.3749 20.1009 12.3287 20.1165C12.2829 20.1305 12.237 20.1445 12.1898 20.1589C12.0031 20.2173 11.8372 20.2772 11.6681 20.3835C11.5929 20.5826 11.5929 20.5826 11.5631 20.8049C11.6365 20.9735 11.6365 20.9735 11.765 21.0927C12.0676 21.1544 12.3389 21.0684 12.6303 20.9821C12.6771 20.9691 12.7239 20.956 12.7721 20.9426C13.2271 20.8112 13.2405 20.701 13.288 20.1949Z" fill="black"/>
<path d="M9.33486 21.3425C9.36458 21.1202 9.36458 21.1202 9.30816 20.952C8.95482 20.6614 8.411 20.8053 7.99853 20.8571C7.84965 20.8874 7.84965 20.8874 7.6875 20.9893C7.60156 21.2167 7.56027 21.3443 7.63897 21.5788C7.99231 21.8694 8.53614 21.7255 8.9486 21.6738C9.17832 21.6269 9.24368 21.5838 9.33486 21.3425Z" fill="black"/>
<path d="M21.9455 14.814C21.7887 14.6584 21.6618 14.6251 21.4543 14.5895C21.2912 14.692 21.2912 14.692 21.1379 14.8476C21.087 14.8979 21.0361 14.9482 20.9837 15C20.9344 15.0518 20.8851 15.1035 20.8343 15.1568C20.7838 15.2072 20.7332 15.2576 20.6811 15.3095C20.5213 15.4892 20.4825 15.6236 20.4512 15.8714C20.4888 16.0292 20.4888 16.0292 20.5894 16.14C20.8249 16.1979 20.9416 16.2159 21.1526 16.0785C21.228 16.0037 21.228 16.0037 21.3049 15.9273C21.3841 15.8487 21.3841 15.8487 21.465 15.7684C21.536 15.694 21.536 15.694 21.6085 15.6181C21.6692 15.5555 21.7299 15.4929 21.7925 15.4284C21.929 15.2159 21.9514 15.0726 21.9455 14.814Z" fill="black"/>
<path d="M24.5433 11.5231C24.4688 11.3589 24.4688 11.3589 24.3414 11.2353C24.1774 11.1903 24.1774 11.1903 24.006 11.2092C23.6236 11.4879 23.3279 11.9588 23.1909 12.4395C23.1802 12.522 23.1696 12.6044 23.1586 12.6894C23.3144 12.8876 23.3144 12.8876 23.499 12.9531C23.7361 12.931 23.7606 12.9124 23.9137 12.7295C23.9802 12.6374 24.0448 12.5436 24.1076 12.4484C24.1403 12.3996 24.173 12.3508 24.2067 12.3006C24.5269 11.7989 24.5269 11.7989 24.5433 11.5231Z" fill="black"/>
<path d="M7.32186 21.4448C7.34233 21.3202 7.34233 21.3202 7.36321 21.193C7.18951 20.9719 7.10745 20.9525 6.85164 20.9217C6.1148 20.8743 6.1148 20.8743 5.78468 20.941C5.64992 21.0863 5.64992 21.0863 5.57006 21.2536C5.58048 21.4691 5.58048 21.4691 5.67336 21.6625C5.99249 21.7903 6.27864 21.8136 6.61622 21.8068C6.74105 21.8052 6.74105 21.8052 6.8684 21.8036C7.16201 21.7797 7.2173 21.754 7.32186 21.4448Z" fill="black"/>
<path d="M26.4831 7.57972C26.3273 7.38144 26.3273 7.38144 26.1672 7.33763C25.9919 7.35527 25.9919 7.35527 25.8507 7.4588C25.5581 7.864 25.3402 8.36025 25.2717 8.87402C25.3736 9.06541 25.3736 9.06541 25.5371 9.18108C25.7157 9.20217 25.7157 9.20217 25.89 9.13703C26.1958 8.75324 26.5082 8.09961 26.4831 7.57972Z" fill="black"/>
<path d="M27.2621 5.55015C27.1063 5.35187 27.1063 5.35187 26.9105 5.29722C26.7073 5.30642 26.7073 5.30642 26.5889 5.42157C26.3746 5.86144 26.1797 6.36675 26.1143 6.86373C26.2065 7.04273 26.2065 7.04273 26.4247 7.12776C26.6516 7.17768 26.6516 7.17768 26.8137 7.07579C26.9127 6.86181 26.9127 6.86181 27.015 6.59395C27.049 6.50661 27.083 6.41927 27.118 6.32929C27.2031 6.06156 27.2525 5.83357 27.2621 5.55015Z" fill="black"/>
<path d="M27.9139 3.48191C27.8217 3.30291 27.8217 3.30291 27.6426 3.21556C27.4402 3.18724 27.4402 3.18724 27.3003 3.28997C27.1069 3.55642 27.0482 3.82762 26.9727 4.15478C26.9496 4.246 26.9496 4.246 26.9261 4.33907C26.8173 4.79084 26.8173 4.79084 26.9218 4.99377C27.2413 5.1322 27.2413 5.1322 27.4271 5.06406C27.7754 4.75082 27.9036 3.96743 27.9139 3.48191Z" fill="black"/>
<path d="M1.22073 21.1433C1.30868 20.9103 1.30868 20.9103 1.34317 20.6517C1.23848 20.4353 1.16916 20.374 0.956548 20.297C0.887911 20.2845 0.819275 20.2719 0.748559 20.259C0.67982 20.2455 0.611081 20.2319 0.540259 20.218C0.360783 20.2028 0.360783 20.2028 0.198631 20.3047C0.117542 20.5445 0.117542 20.5445 0.0761948 20.7963C0.255975 21.0251 0.349202 21.0505 0.609109 21.1278C0.675902 21.1484 0.742696 21.1691 0.811514 21.1903C0.994994 21.2259 0.994994 21.2259 1.22073 21.1433Z" fill="black"/>
</svg>
