<svg width="390" height="141" viewBox="0 0 390 141" fill="none" xmlns="http://www.w3.org/2000/svg">
<g filter="url(#filter0_di_1036_547)">
<path d="M25.0436 47.0304C26.2375 35.8888 26.8345 30.3181 30.5728 26.959C34.311 23.6 39.9137 23.6 51.119 23.6H339.881C351.086 23.6 356.689 23.6 360.427 26.959C364.165 30.3181 364.762 35.8888 365.956 47.0304L367.701 63.3056C367.85 64.7015 367.925 65.3994 367.925 66.1C367.925 66.8006 367.85 67.4985 367.701 68.8943L365.956 85.1696C364.762 96.3111 364.165 101.882 360.427 105.241C356.689 108.6 351.086 108.6 339.881 108.6H51.119C39.9137 108.6 34.311 108.6 30.5728 105.241C26.8345 101.882 26.2375 96.3111 25.0436 85.1696L23.2995 68.8943C23.1499 67.4985 23.0751 66.8006 23.0751 66.1C23.0751 65.3994 23.1499 64.7015 23.2995 63.3056L25.0436 47.0304Z" fill="url(#paint0_linear_1036_547)"/>
</g>
<g filter="url(#filter1_i_1036_547)">
<path d="M23.0436 42.0304C24.2375 30.8888 24.8345 25.3181 28.5728 21.959C32.311 18.6 37.9137 18.6 49.119 18.6H337.881C349.086 18.6 354.689 18.6 358.427 21.959C362.165 25.3181 362.762 30.8888 363.956 42.0304L365.701 58.3056C365.85 59.7015 365.925 60.3994 365.925 61.1C365.925 61.8006 365.85 62.4985 365.701 63.8943L363.956 80.1696C362.762 91.3111 362.165 96.8819 358.427 100.241C354.689 103.6 349.086 103.6 337.881 103.6H49.119C37.9137 103.6 32.311 103.6 28.5728 100.241C24.8345 96.8819 24.2375 91.3111 23.0436 80.1696L21.2995 63.8943C21.1499 62.4985 21.0751 61.8006 21.0751 61.1C21.0751 60.3994 21.1499 59.7015 21.2995 58.3056L23.0436 42.0304Z" fill="url(#paint1_linear_1036_547)"/>
</g>
<path d="M80.4459 68.6V52.6H86.5709C87.7272 52.6 88.6881 52.7823 89.4537 53.1468C90.2245 53.5062 90.8001 53.9984 91.1803 54.6234C91.5657 55.2484 91.7584 55.9567 91.7584 56.7484C91.7584 57.3995 91.6334 57.9567 91.3834 58.4203C91.1334 58.8786 90.7975 59.251 90.3756 59.5375C89.9537 59.8239 89.4824 60.0297 88.9615 60.1547V60.3109C89.5292 60.3422 90.0735 60.5166 90.5943 60.8344C91.1204 61.1469 91.5501 61.5896 91.8834 62.1625C92.2167 62.7354 92.3834 63.4281 92.3834 64.2406C92.3834 65.0687 92.1829 65.8135 91.7818 66.475C91.3808 67.1312 90.7766 67.6495 89.9693 68.0297C89.162 68.4099 88.1464 68.6 86.9225 68.6H80.4459ZM83.3443 66.1781H86.4615C87.5136 66.1781 88.2714 65.9776 88.735 65.5765C89.2037 65.1703 89.4381 64.6495 89.4381 64.014C89.4381 63.5401 89.3209 63.113 89.0865 62.7328C88.8522 62.3474 88.5188 62.0453 88.0865 61.8265C87.6542 61.6026 87.1386 61.4906 86.5397 61.4906H83.3443V66.1781ZM83.3443 59.4047H86.2115C86.7115 59.4047 87.162 59.3135 87.5631 59.1312C87.9641 58.9437 88.2792 58.6807 88.5084 58.3422C88.7428 57.9984 88.86 57.5922 88.86 57.1234C88.86 56.5036 88.6412 55.9932 88.2037 55.5922C87.7714 55.1911 87.1282 54.9906 86.274 54.9906H83.3443V59.4047ZM95.7849 68.6V52.6H106.191V55.0297H98.6833V59.3734H105.652V61.8031H98.6833V66.1703H106.254V68.6H95.7849ZM110.028 68.6V52.6H116.028C117.257 52.6 118.289 52.8291 119.122 53.2875C119.96 53.7458 120.593 54.376 121.02 55.1781C121.453 55.975 121.669 56.8812 121.669 57.8969C121.669 58.9229 121.453 59.8344 121.02 60.6312C120.588 61.4281 119.95 62.0557 119.106 62.514C118.263 62.9672 117.223 63.1937 115.989 63.1937H112.013V60.8109H115.598C116.317 60.8109 116.906 60.6859 117.364 60.4359C117.822 60.1859 118.161 59.8422 118.38 59.4047C118.604 58.9672 118.716 58.4646 118.716 57.8969C118.716 57.3291 118.604 56.8291 118.38 56.3969C118.161 55.9646 117.82 55.6286 117.356 55.389C116.898 55.1442 116.307 55.0219 115.583 55.0219H112.927V68.6H110.028ZM135.152 52.6H138.051V63.0531C138.051 64.1989 137.78 65.2067 137.238 66.0765C136.702 66.9463 135.947 67.626 134.973 68.1156C133.999 68.6 132.861 68.8422 131.559 68.8422C130.251 68.8422 129.111 68.6 128.137 68.1156C127.163 67.626 126.408 66.9463 125.871 66.0765C125.335 65.2067 125.066 64.1989 125.066 63.0531V52.6H127.965V62.8109C127.965 63.4776 128.111 64.0713 128.402 64.5922C128.699 65.113 129.116 65.5219 129.652 65.8187C130.189 66.1104 130.824 66.2562 131.559 66.2562C132.293 66.2562 132.928 66.1104 133.465 65.8187C134.006 65.5219 134.423 65.113 134.715 64.5922C135.006 64.0713 135.152 63.4776 135.152 62.8109V52.6ZM142.081 68.6V52.6H144.98V66.1703H152.026V68.6H142.081ZM167.72 63.225H170.345L171.9 65.2406L173.009 66.5531L175.673 69.975H172.861L171.048 67.6781L170.275 66.5844L167.72 63.225ZM176.056 60.6C176.056 62.3239 175.733 63.8005 175.087 65.0297C174.447 66.2536 173.572 67.1911 172.462 67.8422C171.358 68.4932 170.105 68.8187 168.704 68.8187C167.303 68.8187 166.048 68.4932 164.939 67.8422C163.835 67.1859 162.96 66.2458 162.314 65.0219C161.673 63.7927 161.353 62.3187 161.353 60.6C161.353 58.876 161.673 57.4021 162.314 56.1781C162.96 54.9489 163.835 54.0088 164.939 53.3578C166.048 52.7067 167.303 52.3812 168.704 52.3812C170.105 52.3812 171.358 52.7067 172.462 53.3578C173.572 54.0088 174.447 54.9489 175.087 56.1781C175.733 57.4021 176.056 58.876 176.056 60.6ZM173.142 60.6C173.142 59.3864 172.952 58.363 172.572 57.5297C172.197 56.6911 171.676 56.0583 171.009 55.6312C170.342 55.1989 169.574 54.9828 168.704 54.9828C167.835 54.9828 167.066 55.1989 166.4 55.6312C165.733 56.0583 165.21 56.6911 164.829 57.5297C164.454 58.363 164.267 59.3864 164.267 60.6C164.267 61.8135 164.454 62.8396 164.829 63.6781C165.21 64.5114 165.733 65.1442 166.4 65.5765C167.066 66.0036 167.835 66.2172 168.704 66.2172C169.574 66.2172 170.342 66.0036 171.009 65.5765C171.676 65.1442 172.197 64.5114 172.572 63.6781C172.952 62.8396 173.142 61.8135 173.142 60.6ZM180.893 68.6H177.799L183.432 52.6H187.01L192.651 68.6H189.557L185.284 55.8812H185.159L180.893 68.6ZM180.995 62.3265H189.432V64.6547H180.995V62.3265ZM193.002 55.0297V52.6H205.767V55.0297H200.822V68.6H197.947V55.0297H193.002ZM222.257 52.6V68.6H219.678L212.139 57.7015H212.007V68.6H209.108V52.6H211.702L219.233 63.5062H219.374V52.6H222.257ZM228.349 68.6H225.256L230.888 52.6H234.467L240.107 68.6H237.013L232.74 55.8812H232.615L228.349 68.6ZM228.451 62.3265H236.888V64.6547H228.451V62.3265ZM251.532 56.9984C251.459 56.3161 251.152 55.7849 250.61 55.4047C250.074 55.0245 249.376 54.8344 248.517 54.8344C247.912 54.8344 247.394 54.9255 246.962 55.1078C246.53 55.2901 246.199 55.5375 245.97 55.85C245.74 56.1625 245.623 56.5192 245.618 56.9203C245.618 57.2536 245.694 57.5427 245.845 57.7875C246.001 58.0323 246.212 58.2406 246.477 58.4125C246.743 58.5791 247.037 58.7198 247.36 58.8344C247.683 58.9489 248.009 59.0453 248.337 59.1234L249.837 59.4984C250.441 59.639 251.022 59.8291 251.579 60.0687C252.142 60.3083 252.644 60.6104 253.087 60.975C253.535 61.3396 253.889 61.7797 254.149 62.2953C254.41 62.8109 254.54 63.4151 254.54 64.1078C254.54 65.0453 254.3 65.8708 253.821 66.5844C253.342 67.2927 252.649 67.8474 251.743 68.2484C250.842 68.6442 249.751 68.8422 248.47 68.8422C247.225 68.8422 246.144 68.6495 245.227 68.264C244.316 67.8786 243.602 67.3161 243.087 66.5765C242.576 65.837 242.3 64.9359 242.259 63.8734H245.11C245.152 64.4307 245.324 64.8942 245.626 65.264C245.928 65.6338 246.321 65.9099 246.806 66.0922C247.295 66.2745 247.842 66.3656 248.446 66.3656C249.076 66.3656 249.628 66.2719 250.102 66.0844C250.582 65.8916 250.957 65.626 251.227 65.2875C251.498 64.9437 251.636 64.5427 251.642 64.0844C251.636 63.6677 251.514 63.3239 251.274 63.0531C251.035 62.7771 250.699 62.5479 250.267 62.3656C249.839 62.1781 249.339 62.0114 248.767 61.8656L246.946 61.3969C245.628 61.0583 244.587 60.5453 243.821 59.8578C243.061 59.1651 242.681 58.2458 242.681 57.1C242.681 56.1573 242.936 55.3317 243.446 54.6234C243.962 53.9151 244.662 53.3656 245.548 52.975C246.433 52.5791 247.436 52.3812 248.556 52.3812C249.691 52.3812 250.686 52.5791 251.54 52.975C252.399 53.3656 253.074 53.9099 253.563 54.6078C254.053 55.3005 254.306 56.0974 254.321 56.9984H251.532ZM258.004 68.6V52.6H260.902V59.3734H268.316V52.6H271.223V68.6H268.316V61.8031H260.902V68.6H258.004ZM278.153 52.6V68.6H275.255V52.6H278.153ZM290.867 56.9984C290.795 56.3161 290.487 55.7849 289.946 55.4047C289.409 55.0245 288.711 54.8344 287.852 54.8344C287.248 54.8344 286.729 54.9255 286.297 55.1078C285.865 55.2901 285.534 55.5375 285.305 55.85C285.076 56.1625 284.959 56.5192 284.953 56.9203C284.953 57.2536 285.029 57.5427 285.18 57.7875C285.336 58.0323 285.547 58.2406 285.813 58.4125C286.078 58.5791 286.373 58.7198 286.696 58.8344C287.019 58.9489 287.344 59.0453 287.672 59.1234L289.172 59.4984C289.776 59.639 290.357 59.8291 290.914 60.0687C291.477 60.3083 291.979 60.6104 292.422 60.975C292.87 61.3396 293.224 61.7797 293.485 62.2953C293.745 62.8109 293.875 63.4151 293.875 64.1078C293.875 65.0453 293.636 65.8708 293.157 66.5844C292.677 67.2927 291.985 67.8474 291.078 68.2484C290.177 68.6442 289.086 68.8422 287.805 68.8422C286.56 68.8422 285.479 68.6495 284.563 68.264C283.651 67.8786 282.938 67.3161 282.422 66.5765C281.912 65.837 281.636 64.9359 281.594 63.8734H284.446C284.487 64.4307 284.659 64.8942 284.961 65.264C285.263 65.6338 285.657 65.9099 286.141 66.0922C286.63 66.2745 287.177 66.3656 287.782 66.3656C288.412 66.3656 288.964 66.2719 289.438 66.0844C289.917 65.8916 290.292 65.626 290.563 65.2875C290.834 64.9437 290.972 64.5427 290.977 64.0844C290.972 63.6677 290.849 63.3239 290.61 63.0531C290.37 62.7771 290.034 62.5479 289.602 62.3656C289.175 62.1781 288.675 62.0114 288.102 61.8656L286.282 61.3969C284.964 61.0583 283.922 60.5453 283.157 59.8578C282.396 59.1651 282.016 58.2458 282.016 57.1C282.016 56.1573 282.271 55.3317 282.782 54.6234C283.297 53.9151 283.998 53.3656 284.883 52.975C285.769 52.5791 286.771 52.3812 287.891 52.3812C289.026 52.3812 290.021 52.5791 290.875 52.975C291.735 53.3656 292.409 53.9099 292.899 54.6078C293.388 55.3005 293.641 56.0974 293.657 56.9984H290.867ZM297.339 68.6V52.6H300.238V59.3734H307.652V52.6H310.558V68.6H307.652V61.8031H300.238V68.6H297.339Z" fill="white"/>
<defs>
<filter id="filter0_di_1036_547" x="-4.52493" y="-2.47955e-05" width="400.05" height="140.2" filterUnits="userSpaceOnUse" color-interpolation-filters="sRGB">
<feFlood flood-opacity="0" result="BackgroundImageFix"/>
<feColorMatrix in="SourceAlpha" type="matrix" values="0 0 0 0 0 0 0 0 0 0 0 0 0 0 0 0 0 0 127 0" result="hardAlpha"/>
<feOffset dy="4"/>
<feGaussianBlur stdDeviation="13.8"/>
<feComposite in2="hardAlpha" operator="out"/>
<feColorMatrix type="matrix" values="0 0 0 0 0.360784 0 0 0 0 0.262745 0 0 0 0 1 0 0 0 0.7 0"/>
<feBlend mode="normal" in2="BackgroundImageFix" result="effect1_dropShadow_1036_547"/>
<feBlend mode="normal" in="SourceGraphic" in2="effect1_dropShadow_1036_547" result="shape"/>
<feColorMatrix in="SourceAlpha" type="matrix" values="0 0 0 0 0 0 0 0 0 0 0 0 0 0 0 0 0 0 127 0" result="hardAlpha"/>
<feOffset dy="-2.91386"/>
<feGaussianBlur stdDeviation="1.45693"/>
<feComposite in2="hardAlpha" operator="arithmetic" k2="-1" k3="1"/>
<feColorMatrix type="matrix" values="0 0 0 0 0 0 0 0 0 0 0 0 0 0 0 0 0 0 0.15 0"/>
<feBlend mode="normal" in2="shape" result="effect2_innerShadow_1036_547"/>
</filter>
<filter id="filter1_i_1036_547" x="21.0751" y="18.6" width="348.85" height="93" filterUnits="userSpaceOnUse" color-interpolation-filters="sRGB">
<feFlood flood-opacity="0" result="BackgroundImageFix"/>
<feBlend mode="normal" in="SourceGraphic" in2="BackgroundImageFix" result="shape"/>
<feColorMatrix in="SourceAlpha" type="matrix" values="0 0 0 0 0 0 0 0 0 0 0 0 0 0 0 0 0 0 127 0" result="hardAlpha"/>
<feOffset dx="4" dy="8"/>
<feGaussianBlur stdDeviation="7.45"/>
<feComposite in2="hardAlpha" operator="arithmetic" k2="-1" k3="1"/>
<feColorMatrix type="matrix" values="0 0 0 0 1 0 0 0 0 1 0 0 0 0 1 0 0 0 0.25 0"/>
<feBlend mode="normal" in2="shape" result="effect1_innerShadow_1036_547"/>
</filter>
<linearGradient id="paint0_linear_1036_547" x1="368" y1="66.1" x2="23" y2="66.0999" gradientUnits="userSpaceOnUse">
<stop stop-color="#8C58E5"/>
</linearGradient>
<linearGradient id="paint1_linear_1036_547" x1="359.5" y1="96.1" x2="27" y2="23.1" gradientUnits="userSpaceOnUse">
<stop stop-color="#706DF0"/>
<stop offset="0.514141" stop-color="#9F8EFF"/>
<stop offset="1" stop-color="#706DF0"/>
</linearGradient>
</defs>
</svg>
