<svg width="390" height="141" viewBox="0 0 390 141" fill="none" xmlns="http://www.w3.org/2000/svg">
<g filter="url(#filter0_di_1036_612)">
<path d="M25.0436 47.0304C26.2375 35.8888 26.8345 30.3181 30.5728 26.959C34.311 23.6 39.9137 23.6 51.119 23.6H339.881C351.086 23.6 356.689 23.6 360.427 26.959C364.165 30.3181 364.762 35.8888 365.956 47.0304L367.701 63.3056C367.85 64.7015 367.925 65.3994 367.925 66.1C367.925 66.8006 367.85 67.4985 367.701 68.8943L365.956 85.1696C364.762 96.3111 364.165 101.882 360.427 105.241C356.689 108.6 351.086 108.6 339.881 108.6H51.119C39.9137 108.6 34.311 108.6 30.5728 105.241C26.8345 101.882 26.2375 96.3111 25.0436 85.1696L23.2995 68.8943C23.1499 67.4985 23.0751 66.8006 23.0751 66.1C23.0751 65.3994 23.1499 64.7015 23.2995 63.3056L25.0436 47.0304Z" fill="url(#paint0_linear_1036_612)"/>
</g>
<g filter="url(#filter1_i_1036_612)">
<path d="M23.0436 42.0304C24.2375 30.8888 24.8345 25.3181 28.5728 21.959C32.311 18.6 37.9137 18.6 49.119 18.6H337.881C349.086 18.6 354.689 18.6 358.427 21.959C362.165 25.3181 362.762 30.8888 363.956 42.0304L365.701 58.3056C365.85 59.7015 365.925 60.3994 365.925 61.1C365.925 61.8006 365.85 62.4985 365.701 63.8943L363.956 80.1696C362.762 91.3111 362.165 96.8819 358.427 100.241C354.689 103.6 349.086 103.6 337.881 103.6H49.119C37.9137 103.6 32.311 103.6 28.5728 100.241C24.8345 96.8819 24.2375 91.3111 23.0436 80.1696L21.2995 63.8943C21.1499 62.4985 21.0751 61.8006 21.0751 61.1C21.0751 60.3994 21.1499 59.7015 21.2995 58.3056L23.0436 42.0304Z" fill="url(#paint1_linear_1036_612)"/>
</g>
<path d="M82.4431 68.6V52.6H92.7321V55.0297H85.3415V58.7797H88.4275C89.6514 58.7797 90.7009 58.9802 91.5759 59.3812C92.4561 59.7771 93.1306 60.337 93.5993 61.0609C94.0681 61.7849 94.3025 62.6364 94.3025 63.6156C94.3025 64.6 94.0681 65.4672 93.5993 66.2172C93.1306 66.962 92.4561 67.5453 91.5759 67.9672C90.7009 68.389 89.6514 68.6 88.4275 68.6H82.4431ZM85.3415 66.225H88.4275C89.0733 66.225 89.6202 66.1026 90.0681 65.8578C90.516 65.613 90.8545 65.2901 91.0837 64.889C91.3181 64.488 91.4353 64.0531 91.4353 63.5844C91.4353 62.9073 91.1749 62.3317 90.654 61.8578C90.1384 61.3786 89.3962 61.139 88.4275 61.139H85.3415V66.225ZM97.7176 68.6V52.6H108.124V55.0297H100.616V59.3734H107.585V61.8031H100.616V66.1703H108.186V68.6H97.7176ZM125.016 52.6V68.6H122.141V55.0062H115.141V68.6H112.266V52.6H125.016ZM130.792 68.8187V66.3812H131.706C132.118 66.3812 132.456 66.3213 132.722 66.2015C132.987 66.0817 133.201 65.9099 133.362 65.6859C133.529 65.462 133.667 65.2015 133.776 64.9047L133.987 64.3656L128.269 52.6H131.3L135.284 61.1625L138.73 52.6H141.714L136.198 65.6469C135.943 66.2094 135.649 66.7328 135.316 67.2172C134.982 67.6963 134.547 68.0844 134.011 68.3812C133.48 68.6729 132.787 68.8187 131.933 68.8187H130.792ZM143.619 68.6V66.1937L144.072 66.1703C144.687 66.1338 145.174 65.9125 145.533 65.5062C145.898 65.1 146.166 64.4463 146.338 63.5453C146.515 62.6442 146.632 61.4359 146.69 59.9203L146.955 52.6H157.44V68.6H154.604V54.9828H149.658L149.408 60.8187C149.335 62.5687 149.143 64.0192 148.83 65.1703C148.523 66.3213 148.018 67.1807 147.315 67.7484C146.617 68.3161 145.645 68.6 144.401 68.6H143.619ZM177.403 68.6L172.137 61.6078H170.715V68.6H167.817V52.6H170.715V59.1781H171.442L177.129 52.6H180.7L174.379 59.8969L180.973 68.6H177.403ZM181.34 66.4125V72.3812H178.575V66.4125H181.34ZM186.65 68.6H183.556L189.189 52.6H192.767L198.408 68.6H195.314L191.041 55.8812H190.916L186.65 68.6ZM186.752 62.3265H195.189V64.6547H186.752V62.3265ZM198.758 55.0297V52.6H211.524V55.0297H206.579V68.6H203.704V55.0297H198.758ZM214.865 68.6V52.6H217.763V59.3734H225.178V52.6H228.084V68.6H225.178V61.8031H217.763V68.6H214.865ZM234.171 68.6H231.077L236.71 52.6H240.288L245.929 68.6H242.835L238.561 55.8812H238.436L234.171 68.6ZM234.272 62.3265H242.71V64.6547H234.272V62.3265ZM249.338 52.6H252.189V66.1937H257.127V52.6H259.963V66.1937H264.861V52.6H267.697V68.6H249.338V52.6ZM272.161 52.6H275.036V63.5062H275.185L282.708 52.6H285.31V68.6H282.411V57.7015H282.278L274.732 68.6H272.161V52.6ZM289.77 52.6H292.621V66.1937H297.559V52.6H300.395V66.1937H305.293V52.6H308.129V68.6H289.77V52.6Z" fill="white"/>
<defs>
<filter id="filter0_di_1036_612" x="-4.52493" y="-2.47955e-05" width="400.05" height="140.2" filterUnits="userSpaceOnUse" color-interpolation-filters="sRGB">
<feFlood flood-opacity="0" result="BackgroundImageFix"/>
<feColorMatrix in="SourceAlpha" type="matrix" values="0 0 0 0 0 0 0 0 0 0 0 0 0 0 0 0 0 0 127 0" result="hardAlpha"/>
<feOffset dy="4"/>
<feGaussianBlur stdDeviation="13.8"/>
<feComposite in2="hardAlpha" operator="out"/>
<feColorMatrix type="matrix" values="0 0 0 0 0.360784 0 0 0 0 0.262745 0 0 0 0 1 0 0 0 0.7 0"/>
<feBlend mode="normal" in2="BackgroundImageFix" result="effect1_dropShadow_1036_612"/>
<feBlend mode="normal" in="SourceGraphic" in2="effect1_dropShadow_1036_612" result="shape"/>
<feColorMatrix in="SourceAlpha" type="matrix" values="0 0 0 0 0 0 0 0 0 0 0 0 0 0 0 0 0 0 127 0" result="hardAlpha"/>
<feOffset dy="-2.91386"/>
<feGaussianBlur stdDeviation="1.45693"/>
<feComposite in2="hardAlpha" operator="arithmetic" k2="-1" k3="1"/>
<feColorMatrix type="matrix" values="0 0 0 0 0 0 0 0 0 0 0 0 0 0 0 0 0 0 0.15 0"/>
<feBlend mode="normal" in2="shape" result="effect2_innerShadow_1036_612"/>
</filter>
<filter id="filter1_i_1036_612" x="21.0751" y="18.6" width="348.85" height="93" filterUnits="userSpaceOnUse" color-interpolation-filters="sRGB">
<feFlood flood-opacity="0" result="BackgroundImageFix"/>
<feBlend mode="normal" in="SourceGraphic" in2="BackgroundImageFix" result="shape"/>
<feColorMatrix in="SourceAlpha" type="matrix" values="0 0 0 0 0 0 0 0 0 0 0 0 0 0 0 0 0 0 127 0" result="hardAlpha"/>
<feOffset dx="4" dy="8"/>
<feGaussianBlur stdDeviation="7.45"/>
<feComposite in2="hardAlpha" operator="arithmetic" k2="-1" k3="1"/>
<feColorMatrix type="matrix" values="0 0 0 0 1 0 0 0 0 1 0 0 0 0 1 0 0 0 0.25 0"/>
<feBlend mode="normal" in2="shape" result="effect1_innerShadow_1036_612"/>
</filter>
<linearGradient id="paint0_linear_1036_612" x1="368" y1="66.1" x2="23" y2="66.0999" gradientUnits="userSpaceOnUse">
<stop stop-color="#8C58E5"/>
</linearGradient>
<linearGradient id="paint1_linear_1036_612" x1="359.5" y1="96.1" x2="27" y2="23.1" gradientUnits="userSpaceOnUse">
<stop stop-color="#706DF0"/>
<stop offset="0.514141" stop-color="#9F8EFF"/>
<stop offset="1" stop-color="#706DF0"/>
</linearGradient>
</defs>
</svg>
