<svg width="19" height="19" viewBox="0 0 19 19" fill="none" xmlns="http://www.w3.org/2000/svg">
<path fill-rule="evenodd" clip-rule="evenodd" d="M4.38462 0C4.57843 0 4.7643 0.0769915 4.90135 0.214037C5.03839 0.351083 5.11538 0.536957 5.11538 0.730769V2.19231H13.8846V0.730769C13.8846 0.536957 13.9616 0.351083 14.0987 0.214037C14.2357 0.0769915 14.4216 0 14.6154 0C14.8092 0 14.9951 0.0769915 15.1321 0.214037C15.2692 0.351083 15.3462 0.536957 15.3462 0.730769V2.19231H16.0769C16.8522 2.19231 17.5957 2.50027 18.1439 3.04846C18.692 3.59664 19 4.34014 19 5.11538V16.0769C19 16.8522 18.692 17.5957 18.1439 18.1439C17.5957 18.692 16.8522 19 16.0769 19H2.92308C2.14783 19 1.40433 18.692 0.856149 18.1439C0.307966 17.5957 0 16.8522 0 16.0769V5.11538C0 4.34014 0.307966 3.59664 0.856149 3.04846C1.40433 2.50027 2.14783 2.19231 2.92308 2.19231H3.65385V0.730769C3.65385 0.536957 3.73084 0.351083 3.86788 0.214037C4.00493 0.0769915 4.1908 0 4.38462 0ZM17.5385 8.76923C17.5385 8.38161 17.3845 8.00986 17.1104 7.73577C16.8363 7.46168 16.4645 7.30769 16.0769 7.30769H2.92308C2.53545 7.30769 2.1637 7.46168 1.88961 7.73577C1.61552 8.00986 1.46154 8.38161 1.46154 8.76923V16.0769C1.46154 16.4645 1.61552 16.8363 1.88961 17.1104C2.1637 17.3845 2.53545 17.5385 2.92308 17.5385H16.0769C16.4645 17.5385 16.8363 17.3845 17.1104 17.1104C17.3845 16.8363 17.5385 16.4645 17.5385 16.0769V8.76923Z" fill="#706DF0"/>
</svg>
