<svg width="20" height="19" viewBox="0 0 20 19" fill="none" xmlns="http://www.w3.org/2000/svg">
<path d="M9.93932 0C7.97351 0 6.05185 0.557165 4.41733 1.60104C2.78282 2.64491 1.50887 4.12861 0.75659 5.86451C0.00430655 7.6004 -0.192525 9.51054 0.190986 11.3534C0.574497 13.1962 1.52112 14.8889 2.91116 16.2175C4.3012 17.5461 6.07222 18.4509 8.00026 18.8175C9.9283 19.184 11.9268 18.9959 13.7429 18.2769C15.5591 17.5578 17.1114 16.3402 18.2036 14.7779C19.2957 13.2156 19.8786 11.3789 19.8786 9.5C19.8759 6.98126 18.8278 4.56644 16.9644 2.78542C15.101 1.0044 12.5745 0.00265983 9.93932 0ZM9.93932 17.5385C8.27594 17.5385 6.64992 17.067 5.26687 16.1837C3.88382 15.3005 2.80587 14.045 2.16932 12.5762C1.53277 11.1073 1.36622 9.49108 1.69073 7.93177C2.01524 6.37246 2.81623 4.94015 3.99242 3.81595C5.16861 2.69175 6.66716 1.92616 8.29858 1.61599C9.92999 1.30583 11.621 1.46502 13.1578 2.07343C14.6945 2.68184 16.008 3.71215 16.9321 5.03407C17.8563 6.35599 18.3495 7.91014 18.3495 9.5C18.347 11.6312 17.4601 13.6744 15.8834 15.1814C14.3068 16.6884 12.1691 17.536 9.93932 17.5385ZM16.0558 9.5C16.0558 9.69381 15.9753 9.87968 15.8319 10.0167C15.6885 10.1538 15.494 10.2308 15.2913 10.2308H9.93932C9.73655 10.2308 9.54208 10.1538 9.39869 10.0167C9.25531 9.87968 9.17476 9.69381 9.17476 9.5V4.38461C9.17476 4.1908 9.25531 4.00493 9.39869 3.86788C9.54208 3.73084 9.73655 3.65385 9.93932 3.65385C10.1421 3.65385 10.3366 3.73084 10.48 3.86788C10.6233 4.00493 10.7039 4.1908 10.7039 4.38461V8.76923H15.2913C15.494 8.76923 15.6885 8.84622 15.8319 8.98327C15.9753 9.12031 16.0558 9.30619 16.0558 9.5Z" fill="#706DF0"/>
</svg>
